HIERARCHY
ROOT Lex4_Hips
{
  OFFSET -0.563458 94.7827 2.4889
  CHANNELS 6 Xposition Yposition Zposition Zrotation Xrotation Yrotation
  JOINT Lex4_LeftUpLeg
  {
    OFFSET 11.2507 0 0
    CHANNELS 6 Xposition Yposition Zposition Zrotation Xrotation Yrotation
    JOINT Lex4_LeftLeg
    {
      OFFSET 0 -48.2125 0
      CHANNELS 6 Xposition Yposition Zposition Zrotation Xrotation Yrotation
      JOINT Lex4_LeftFoot
      {
        OFFSET 0 -41.8358 0
        CHANNELS 6 Xposition Yposition Zposition Zrotation Xrotation Yrotation
        JOINT Lex4_LeftToeBase
        {
          OFFSET 0 0 13.7184
          CHANNELS 6 Xposition Yposition Zposition Zrotation Xrotation Yrotation
          JOINT Lex4_LeftToeEnd
          {
            OFFSET 0 0 7.5
            CHANNELS 6 Xposition Yposition Zposition Zrotation Xrotation Yrotation
            End Site
            {
              OFFSET 0 0 0
            }
          }
        }
      }
    }
  }
  JOINT Lex4_RightUpLeg
  {
    OFFSET -11.2507 0 0
    CHANNELS 6 Xposition Yposition Zposition Zrotation Xrotation Yrotation
    JOINT Lex4_RightLeg
    {
      OFFSET 0 -48.2125 0
      CHANNELS 6 Xposition Yposition Zposition Zrotation Xrotation Yrotation
      JOINT Lex4_RightFoot
      {
        OFFSET 0 -41.8358 0
        CHANNELS 6 Xposition Yposition Zposition Zrotation Xrotation Yrotation
        JOINT Lex4_RightToeBase
        {
          OFFSET 0 0 13.7184
          CHANNELS 6 Xposition Yposition Zposition Zrotation Xrotation Yrotation
          JOINT Lex4_RightToeEnd
          {
            OFFSET 0 0 7.5
            CHANNELS 6 Xposition Yposition Zposition Zrotation Xrotation Yrotation
            End Site
            {
              OFFSET 0 0 0
            }
          }
        }
      }
    }
  }
  JOINT Lex4_Spine
  {
    OFFSET 0 14.1428 0
    CHANNELS 6 Xposition Yposition Zposition Zrotation Xrotation Yrotation
    JOINT Lex4_Head
    {
      OFFSET 0 48.2444 0
      CHANNELS 6 Xposition Yposition Zposition Zrotation Xrotation Yrotation
      End Site
      {
        OFFSET 0 11.5 0
      }
    }
    JOINT Lex4_LabelingCluster_1
    {
      OFFSET 6.91668 29.7232 -14.2315
      CHANNELS 6 Xposition Yposition Zposition Zrotation Xrotation Yrotation
      End Site
      {
        OFFSET 0 0 0
      }
    }
    JOINT Lex4_LeftShoulder
    {
      OFFSET 0 33.7901 0
      CHANNELS 6 Xposition Yposition Zposition Zrotation Xrotation Yrotation
      JOINT Lex4_LeftArm
      {
        OFFSET 0 19.8458 0
        CHANNELS 6 Xposition Yposition Zposition Zrotation Xrotation Yrotation
        JOINT Lex4_LeftForeArm
        {
          OFFSET 0 31.3007 0
          CHANNELS 6 Xposition Yposition Zposition Zrotation Xrotation Yrotation
          JOINT Lex4_LeftHand
          {
            OFFSET 0 25.4109 0
            CHANNELS 6 Xposition Yposition Zposition Zrotation Xrotation Yrotation
            JOINT Lex4_LeftHandEnd
            {
              OFFSET 0 10 0
              CHANNELS 6 Xposition Yposition Zposition Zrotation Xrotation Yrotation
              End Site
              {
                OFFSET 0 0 0
              }
            }
            JOINT Lex4_LeftHandThumb1
            {
              OFFSET 0 0 0
              CHANNELS 6 Xposition Yposition Zposition Zrotation Xrotation Yrotation
              JOINT Lex4_LeftHandThumb2
              {
                OFFSET 0 0 10
                CHANNELS 6 Xposition Yposition Zposition Zrotation Xrotation Yrotation
                End Site
                {
                  OFFSET 0 0 0
                }
              }
            }
          }
        }
      }
    }
    JOINT Lex4_RightShoulder
    {
      OFFSET 0 33.7901 0
      CHANNELS 6 Xposition Yposition Zposition Zrotation Xrotation Yrotation
      JOINT Lex4_RightArm
      {
        OFFSET 0 19.8458 0
        CHANNELS 6 Xposition Yposition Zposition Zrotation Xrotation Yrotation
        JOINT Lex4_RightForeArm
        {
          OFFSET 0 31.3007 0
          CHANNELS 6 Xposition Yposition Zposition Zrotation Xrotation Yrotation
          JOINT Lex4_RightHand
          {
            OFFSET 0 25.4109 0
            CHANNELS 6 Xposition Yposition Zposition Zrotation Xrotation Yrotation
            JOINT Lex4_RightHandEnd
            {
              OFFSET 0 10 0
              CHANNELS 6 Xposition Yposition Zposition Zrotation Xrotation Yrotation
              End Site
              {
                OFFSET 0 0 0
              }
            }
            JOINT Lex4_RightHandThumb1
            {
              OFFSET 0 0 0
              CHANNELS 6 Xposition Yposition Zposition Zrotation Xrotation Yrotation
              JOINT Lex4_RightHandThumb2
              {
                OFFSET 0 0 10
                CHANNELS 6 Xposition Yposition Zposition Zrotation Xrotation Yrotation
                End Site
                {
                  OFFSET 0 0 0
                }
              }
            }
          }
        }
      }
    }
  }
}
MOTION
Frames:	4
Frame Time:	0.0416667
-0.563458 94.7827 2.4889 0.64234 17.6549 176.998 11.2507 0 0 -0.187575 26.9632 16.7545 0 -48.2125 0 -3.17227e-016 -2.89218 1.59231e-015 0 -41.8358 0 -0.103424 11.1173 -3.54188 1.77636e-015 -6.66134e-016 13.7184 6.29299e-016 -16.8118 -3.32256e-015 0 4.44089e-016 7.5 -1.49089e-016 1.98785e-016 -0 -11.2507 0 0 -1.49785 27.1502 -4.65371 0 -48.2125 -3.55271e-015 -5.96872e-016 -3.58563 -3.18679e-015 -3.55271e-015 -41.8358 -1.77636e-015 -0.141017 11.3387 1.13237 1.77636e-015 1.22125e-015 13.7184 -1.291e-015 -20.6257 8.49596e-016 0 8.88178e-016 7.5 1.49089e-016 7.95139e-016 2.38542e-015 -2.22045e-016 14.1428 0 3.08552 17.9842 -3.85087 0 48.2444 0 -8.0936 12.0184 -4.50404 6.91668 29.7232 -14.2315 86.4651 -9.05113 -165.72 -8.88178e-016 33.7901 0 -78.2962 -14.0293 1.78649 2.84217e-014 19.8458 0 -19.0467 23.0748 -45.0485 0 31.3007 0 2.69561e-007 -7.1381 44.9874 0 25.4109 -2.22045e-015 6.68052 -8.43847 -1.20576e-015 0 10 1.77636e-015 -3.97569e-016 0 3.97569e-016 0 0 0 15.0933 -21.7379 36.0619 0 0 10 3.18055e-015 3.18055e-015 -0 -8.88178e-016 33.7901 0 66.4678 -13.3761 -8.80738 0 19.8458 0 27.8962 24.2238 -0.763052 0 31.3007 0 2.48953e-007 12.3131 13.4927 2.84217e-014 25.4109 3.55271e-015 -6.67098 -9.56839 -3.22543e-015 2.84217e-014 10 3.55271e-015 -3.97569e-016 -7.95139e-016 1.59028e-015 0 0 0 -13.7831 -20.2443 -35.3345 -2.84217e-014 0 10 -2.38542e-015 0 -0 
-0.566064 94.7837 2.4971 0.647645 17.6362 176.978 11.2507 -1.42109e-014 -3.55271e-015 -0.198105 26.9397 16.7964 3.55271e-015 -48.2125 -1.77636e-015 -3.17229e-016 -2.89212 1.59231e-015 -3.55271e-015 -41.8358 -1.77636e-015 -0.0656408 11.127 -3.56445 0 -8.88178e-016 13.7184 -9.61794e-016 -16.8252 -3.3228e-015 0 6.66134e-016 7.5 -0 0 1.59028e-015 -11.2507 -1.42109e-014 0 -1.51617 27.1182 -4.61876 1.77636e-015 -48.2125 0 -7.95139e-016 -3.57421 -0 -1.77636e-015 -41.8358 -3.55271e-015 -0.155302 11.3387 1.12352 -1.77636e-015 -6.66134e-016 13.7184 -1.68559e-015 -20.6075 4.24748e-015 3.55271e-015 6.66134e-016 7.5 9.93923e-017 0 -0 0 14.1428 -3.55271e-015 3.08192 17.9599 -3.84426 -8.88178e-016 48.2444 0 -8.10741 11.9725 -4.45486 6.91543 29.7265 -14.2331 86.4886 -9.03893 -165.75 0 33.7901 0 -78.2696 -14.0169 1.75022 -2.84217e-014 19.8458 1.77636e-015 -19.1393 23.009 -44.9664 0 31.3007 -1.42109e-014 -1.34342e-006 -7.11619 45.0069 0 25.4109 4.44089e-016 6.66217 -8.41671 -2.81329e-015 0 10 0 3.54085e-016 0 -0 0 0 0 15.0933 -21.7379 36.0619 1.42109e-014 -1.42109e-014 10 -1.59028e-015 -3.18055e-015 6.36111e-015 0 33.7901 0 66.4727 -13.3967 -8.72107 2.84217e-014 19.8458 1.77636e-015 27.9208 24.1925 -1.39098 -2.84217e-014 31.3007 0 1.53297e-005 12.5033 13.9847 2.84217e-014 25.4109 0 -6.89957 -9.64043 -4.83917e-015 0 10 -7.10543e-015 5.96354e-016 1.59028e-015 -0 0 0 0 -13.7831 -20.2443 -35.3345 0 0 10 -3.53113e-031 -6.36111e-015 -3.18055e-015 
-0.561686 94.7872 2.50584 0.657245 17.6665 176.951 11.2507 -2.84217e-014 7.10543e-015 -0.189757 26.9511 16.7815 3.55271e-015 -48.2125 0 -4.76671e-016 -2.84761 -1.59224e-015 0 -41.8358 -1.77636e-015 -0.0384186 11.1163 -3.51237 -1.77636e-015 -6.66134e-016 13.7184 -7.95139e-016 -16.7433 -0 0 6.66134e-016 7.5 -1.2424e-016 -9.93923e-017 -0 -11.2507 0 3.55271e-015 -1.5066 27.1279 -4.63592 -1.77636e-015 -48.2125 0 -8.95282e-016 -3.54937 1.59333e-015 -1.77636e-015 -41.8358 -3.55271e-015 -0.147753 11.3466 1.1732 1.77636e-015 -4.44089e-016 13.7184 -1.58474e-015 -20.6434 3.39878e-015 0 8.88178e-016 7.5 1.98785e-016 -3.97569e-016 -0 0 14.1428 3.55271e-015 3.07715 17.984 -3.89782 0 48.2444 -8.88178e-016 -8.09017 11.8987 -4.3548 6.91057 29.7413 -14.2391 86.467 -9.01689 -165.799 0 33.7901 0 -78.2229 -14.0577 1.82726 2.84217e-014 19.8458 0 -19.2044 22.9299 -44.8494 0 31.3007 0 -3.02569e-005 -7.11997 45.1294 -2.84217e-014 25.4109 0 6.51897 -8.42611 -4.01908e-016 0 10 0 -2.91965e-016 -3.97569e-016 3.97569e-016 0 0 0 15.0933 -21.7379 36.0619 0 0 10 1.59028e-015 -6.36111e-015 -0 0 33.7901 0 66.5459 -13.3691 -8.85331 -2.84217e-014 19.8458 0 27.9295 24.4165 -1.07977 -2.84217e-014 31.3007 0 1.05832e-005 12.555 14.1486 0 25.4109 0 -6.98621 -9.61323 -4.83878e-015 0 10 -3.55271e-015 -5.96354e-016 7.95139e-016 -0 0 0 0 -13.7831 -20.2443 -35.3345 -2.84217e-014 0 10 -7.95139e-016 6.36111e-015 3.18055e-015 
-0.553762 94.7925 2.51941 0.668233 17.6661 176.915 11.2507 -1.42109e-014 -3.55271e-015 -0.187095 26.9378 16.772 0 -48.2125 0 -1.19271e-015 -2.83011 -0 -3.55271e-015 -41.8358 -1.77636e-015 -0.0188115 11.1414 -3.46507 1.77636e-015 4.44089e-016 13.7184 -2.06939e-015 -16.7661 -1.66088e-015 0 8.88178e-016 7.5 2.98177e-016 0 -0 -11.2507 1.42109e-014 0 -1.50281 27.0967 -4.65105 0 -48.2125 0 -1.29398e-015 -3.50901 1.59326e-015 0 -41.8358 -3.55271e-015 -0.245532 11.3579 1.21608 -1.77636e-015 -9.99201e-016 13.7184 -8.92635e-016 -20.6757 8.49876e-016 1.77636e-015 6.66134e-016 7.5 1.98785e-016 -3.97569e-016 -7.95139e-016 0 14.1428 -3.55271e-015 3.05409 17.9774 -3.856 -8.88178e-016 48.2444 0 -8.02715 11.8436 -4.31267 6.91549 29.749 -14.2388 86.4844 -9.06461 -165.847 -8.88178e-016 33.7901 0 -78.1973 -14.0091 1.8844 0 19.8458 4.44089e-016 -19.2307 22.8312 -44.9031 0 31.3007 0 -1.74871e-007 -7.16575 45.2524 -2.84217e-014 25.4109 0 6.57746 -8.48635 -4.62266e-015 0 10 0 -8.32411e-016 -1.98785e-016 3.97569e-016 0 0 0 15.0933 -21.7379 36.0619 0 0 10 -3.18055e-015 -3.18055e-015 6.36111e-015 -8.88178e-016 33.7901 0 66.5783 -13.3583 -8.87042 -2.84217e-014 19.8458 0 28.0526 24.526 -0.822509 0 31.3007 0 1.10962e-006 12.4956 13.6985 0 25.4109 1.77636e-015 -6.83188 -9.53065 -4.8376e-015 5.68434e-014 10 0 9.93923e-016 -7.95139e-016 -1.59028e-015 0 0 0 -13.7831 -20.2443 -35.3345 2.84217e-014 1.42109e-014 10 1.59028e-015 3.18055e-015 -0 
